<?xml version="1.0" encoding="UTF-8" standalone="no"?>
<!DOCTYPE svg PUBLIC "-//W3C//DTD SVG 1.1//EN" "http://www.w3.org/Graphics/SVG/1.1/DTD/svg11.dtd">
<svg xmlns="http://www.w3.org/2000/svg" version="1.1" viewBox="0.00 0.00 2048.00 512.00">
<g stroke-width="2.00" fill="none" stroke-linecap="butt">
<path stroke="#80cfe8" vector-effect="non-scaling-stroke" d="
  M 1882.61 341.53
  L 1882.62 342.21"
/>
<path stroke="#80cfe8" vector-effect="non-scaling-stroke" d="
  M 1956.71 291.62
  L 1956.00 291.63"
/>
<path stroke="#80cfe8" vector-effect="non-scaling-stroke" d="
  M 1955.71 291.63
  L 1955.00 291.63"
/>
<path stroke="#80cfe8" vector-effect="non-scaling-stroke" d="
  M 1953.71 291.63
  L 1953.00 291.63"
/>
<path stroke="#80cfe8" vector-effect="non-scaling-stroke" d="
  M 1951.71 291.63
  L 1951.00 291.63"
/>
<path stroke="#80cfe8" vector-effect="non-scaling-stroke" d="
  M 1950.71 291.63
  L 1950.00 291.63"
/>
<path stroke="#80cfe8" vector-effect="non-scaling-stroke" d="
  M 1949.71 291.63
  L 1949.00 291.63"
/>
<path stroke="#80cfe8" vector-effect="non-scaling-stroke" d="
  M 1948.71 291.63
  L 1948.00 291.63"
/>
<path stroke="#80cfe8" vector-effect="non-scaling-stroke" d="
  M 1947.71 291.63
  L 1947.00 291.63"
/>
</g>
<path fill="#009fd1" d="
  M 247.43 0.00
  Q 248.37 0.31 249.16 0.00
  L 264.00 0.00
  Q 342.12 3.17 403.90 47.14
  Q 434.34 68.81 456.69 97.00
  C 491.70 141.16 511.36 196.23 511.95 252.01
  Q 512.88 340.49 459.26 411.76
  Q 458.80 412.37 455.90 415.88
  A 1.71 1.71 0.0 0 1 453.37 416.00
  L 317.91 280.53
  A 1.71 1.70 35.5 0 1 317.58 278.58
  C 318.26 277.20 319.07 276.98 320.65 277.50
  Q 351.11 287.65 406.00 305.96
  A 1.94 1.93 17.9 0 0 408.45 304.71
  C 418.40 273.45 418.55 239.46 408.70 208.15
  C 390.59 150.55 341.34 107.61 281.52 98.04
  Q 237.13 90.93 195.15 108.04
  Q 153.76 124.90 126.37 162.36
  C 82.38 222.51 86.64 306.86 136.47 362.33
  Q 164.55 393.57 203.09 407.02
  C 260.78 427.15 324.10 412.88 367.82 370.44
  A 1.88 1.88 0.0 0 1 370.46 370.46
  Q 439.61 439.61 506.10 506.10
  A 1.93 1.93 0.0 0 1 506.19 508.74
  Q 505.33 509.72 504.19 509.34
  Q 490.58 504.82 394.07 472.65
  A 2.32 2.32 0.0 0 0 392.10 472.88
  Q 341.01 504.98 280.17 510.71
  Q 272.72 511.42 265.26 512.00
  L 264.58 512.00
  Q 263.78 511.68 263.80 512.00
  L 247.65 512.00
  Q 240.07 511.46 232.52 510.79
  C 152.45 503.59 81.11 459.24 38.56 391.15
  Q 3.08 334.37 0.00 264.81
  L 0.00 263.63
  Q 0.31 262.77 0.00 262.60
  L 0.00 249.28
  Q 0.29 248.53 0.00 248.04
  Q 0.01 247.95 0.00 247.87
  Q 3.65 160.18 58.18 93.43
  Q 89.81 54.72 135.27 30.34
  Q 183.32 4.57 237.85 0.78
  Q 242.31 0.47 246.75 0.00
  L 247.43 0.00
  Z"
/>
<path fill="#ffffff" d="
  M 1371.98 362.66
  A 0.21 0.21 0.0 0 1 1371.81 362.98
  Q 1358.81 363.04 1338.77 362.97
  C 1331.38 362.94 1328.75 359.95 1324.56 353.73
  Q 1294.94 309.77 1287.44 298.58
  Q 1284.86 294.73 1281.46 293.94
  Q 1278.46 293.24 1268.68 293.59
  A 0.58 0.57 89.0 0 0 1268.13 294.17
  L 1268.13 362.39
  A 0.61 0.61 0.0 0 1 1267.52 363.00
  L 1231.85 363.00
  A 0.35 0.35 0.0 0 1 1231.50 362.65
  L 1231.50 143.44
  A 0.32 0.31 90.0 0 1 1231.81 143.12
  L 1267.78 143.12
  A 0.35 0.35 0.0 0 1 1268.13 143.47
  L 1268.13 268.37
  A 0.58 0.58 0.0 0 0 1268.70 268.95
  C 1276.29 269.13 1280.72 269.80 1285.12 264.36
  Q 1304.39 240.55 1324.37 216.15
  Q 1326.54 213.50 1330.15 212.19
  Q 1332.87 211.20 1337.11 211.22
  Q 1353.12 211.29 1369.03 211.25
  A 0.21 0.21 0.0 0 1 1369.19 211.60
  Q 1341.46 244.54 1321.75 268.00
  Q 1316.41 274.36 1311.74 277.50
  A 0.38 0.38 0.0 0 0 1311.71 278.11
  Q 1316.21 281.87 1319.85 287.15
  Q 1362.34 348.67 1371.98 362.66
  Z"
/>
<path fill="#ffffff" d="
  M 1882.61 341.53
  L 1882.62 342.21
  L 1882.61 362.38
  A 0.58 0.58 0.0 0 1 1882.04 362.96
  Q 1864.91 363.18 1858.63 362.83
  Q 1852.32 362.48 1850.80 355.97
  Q 1849.71 351.27 1847.99 342.20
  A 0.33 0.33 0.0 0 0 1847.41 342.05
  Q 1842.97 347.22 1836.42 352.42
  C 1820.59 365.00 1797.19 369.08 1778.59 361.24
  C 1759.43 353.17 1749.00 334.70 1744.87 314.37
  C 1740.91 294.86 1741.21 273.60 1747.55 254.32
  C 1755.71 229.52 1775.28 211.23 1801.78 208.64
  Q 1827.24 206.15 1845.47 222.88
  A 0.24 0.24 0.0 0 0 1845.87 222.70
  L 1845.87 143.47
  A 0.35 0.34 -90.0 0 1 1846.21 143.12
  L 1882.29 143.12
  A 0.37 0.36 -90.0 0 1 1882.65 143.49
  L 1882.61 341.53
  Z
  M 1845.87 317.32
  L 1845.87 250.51
  A 1.53 1.52 25.5 0 0 1845.53 249.55
  Q 1835.17 237.03 1818.73 236.27
  Q 1798.87 235.35 1788.77 250.31
  C 1785.15 255.67 1782.37 264.31 1781.46 270.73
  Q 1779.30 286.00 1780.91 301.57
  C 1782.50 317.00 1788.49 333.26 1805.65 335.73
  Q 1820.57 337.87 1832.38 330.47
  Q 1839.41 326.06 1845.47 318.46
  A 1.83 1.82 -25.7 0 0 1845.87 317.32
  Z"
/>
<ellipse fill="#ffffff" cx="0.00" cy="0.00" transform="translate(1053.51,166.78) rotate(-179.9)" rx="23.45" ry="23.11"/>
<path fill="#ffffff" d="
  M 868.23 404.86
  Q 838.65 404.95 833.51 404.76
  C 825.74 404.47 818.80 402.36 813.44 396.56
  Q 797.36 379.15 781.62 361.65
  A 0.82 0.81 -27.5 0 0 780.83 361.41
  Q 745.32 369.96 712.63 360.11
  Q 697.79 355.63 683.59 345.76
  C 651.06 323.15 637.33 283.87 640.43 245.21
  C 642.66 217.38 654.86 190.14 676.07 172.19
  Q 695.05 156.11 718.63 150.41
  C 752.55 142.20 788.67 147.19 816.74 168.17
  C 864.63 203.97 870.43 278.21 836.00 324.79
  Q 827.79 335.91 814.94 345.37
  A 0.52 0.52 0.0 0 0 814.86 346.14
  L 868.48 404.29
  A 0.34 0.34 0.0 0 1 868.23 404.86
  Z
  M 680.89 255.93
  C 680.87 270.05 683.27 284.37 689.62 297.18
  C 701.14 320.37 723.16 331.34 748.83 331.37
  C 774.49 331.39 796.52 320.45 808.08 297.27
  C 814.46 284.48 816.88 270.17 816.89 256.04
  C 816.90 241.92 814.51 227.60 808.15 214.80
  C 796.63 191.60 774.62 180.63 748.95 180.61
  C 723.28 180.59 701.25 191.52 689.69 214.70
  C 683.31 227.49 680.90 241.81 680.89 255.93
  Z"
/>
<path fill="#ffffff" d="
  M 1461.53 266.98
  C 1448.18 250.40 1434.49 232.71 1419.99 214.31
  A 0.24 0.24 0.0 0 0 1419.56 214.49
  Q 1420.38 222.91 1420.39 228.60
  Q 1420.53 324.17 1420.37 362.47
  A 0.53 0.53 0.0 0 1 1419.84 362.99
  L 1385.79 362.99
  A 0.57 0.57 0.0 0 1 1385.22 362.42
  L 1385.22 149.71
  A 0.62 0.62 0.0 0 1 1385.85 149.09
  Q 1394.70 149.16 1406.27 149.07
  C 1414.91 149.01 1417.30 152.57 1423.01 159.95
  Q 1456.79 203.63 1490.20 245.11
  C 1503.55 261.69 1517.25 279.39 1531.74 297.78
  A 0.24 0.24 0.0 0 0 1532.17 297.61
  Q 1531.35 289.19 1531.34 283.50
  Q 1531.20 187.93 1531.36 149.63
  A 0.53 0.53 0.0 0 1 1531.89 149.11
  L 1565.94 149.11
  A 0.57 0.57 0.0 0 1 1566.51 149.68
  L 1566.51 362.39
  A 0.62 0.62 0.0 0 1 1565.88 363.01
  Q 1557.03 362.94 1545.46 363.03
  C 1536.82 363.09 1534.43 359.53 1528.72 352.14
  Q 1494.94 308.46 1461.53 266.98
  Z"
/>
<path fill="#ffffff" d="
  M 1219.16 340.77
  Q 1207.95 353.78 1191.66 359.94
  C 1180.03 364.35 1165.79 365.90 1153.66 364.93
  C 1122.95 362.49 1100.48 340.62 1093.76 311.07
  Q 1086.96 281.16 1096.50 253.99
  Q 1104.25 231.93 1124.37 219.30
  C 1138.41 210.49 1155.75 207.95 1172.27 209.08
  C 1189.67 210.27 1205.17 217.32 1217.43 229.38
  A 1.05 1.05 0.0 0 1 1217.54 230.75
  Q 1210.82 239.94 1208.26 243.54
  C 1204.23 249.22 1198.70 248.60 1193.47 245.05
  C 1184.80 239.17 1175.23 236.00 1164.78 236.69
  C 1134.09 238.74 1127.49 266.79 1128.75 292.33
  C 1130.08 319.42 1143.83 341.73 1174.86 336.77
  C 1181.42 335.72 1188.14 332.12 1193.54 327.79
  C 1198.19 324.05 1202.57 321.90 1207.36 325.11
  A 2.93 2.73 86.2 0 1 1208.01 325.72
  L 1219.18 339.87
  A 0.71 0.71 0.0 0 1 1219.16 340.77
  Z"
/>
<path fill="#ffffff" d="
  M 1660.85 208.80
  Q 1675.15 208.82 1687.23 212.69
  C 1720.95 223.51 1736.22 253.33 1736.18 287.08
  C 1736.14 320.83 1720.81 350.62 1687.06 361.35
  Q 1674.97 365.20 1660.67 365.19
  Q 1646.38 365.17 1634.29 361.29
  C 1600.57 350.48 1585.31 320.66 1585.35 286.91
  C 1585.38 253.15 1600.72 223.37 1634.46 212.63
  Q 1646.56 208.79 1660.85 208.80
  Z
  M 1623.25 286.97
  C 1623.23 311.89 1630.34 337.16 1660.72 337.18
  C 1691.09 337.19 1698.24 311.93 1698.25 287.01
  C 1698.27 262.09 1691.15 236.82 1660.78 236.80
  C 1630.40 236.78 1623.26 262.04 1623.25 286.97
  Z"
/>
<path fill="#ffffff" d="
  M 1956.71 291.62
  L 1956.00 291.63
  Q 1955.85 291.63 1955.71 291.63
  L 1955.00 291.63
  L 1953.71 291.63
  L 1953.00 291.63
  L 1951.71 291.63
  L 1951.00 291.63
  Q 1950.85 291.63 1950.71 291.63
  L 1950.00 291.63
  Q 1949.85 291.63 1949.71 291.63
  L 1949.00 291.63
  Q 1948.85 291.63 1948.71 291.63
  L 1948.00 291.63
  Q 1947.85 291.63 1947.71 291.63
  L 1947.00 291.63
  L 1937.35 291.63
  A 0.51 0.50 88.9 0 0 1936.85 292.16
  C 1937.98 314.70 1948.08 333.62 1972.32 336.56
  Q 1987.07 338.35 2000.66 332.38
  Q 2006.21 329.95 2015.14 324.88
  Q 2016.28 324.24 2019.25 323.77
  C 2023.59 323.08 2025.68 324.78 2028.54 328.37
  Q 2035.27 336.85 2037.80 339.89
  A 0.67 0.66 47.5 0 1 2037.77 340.77
  Q 2031.56 347.36 2027.79 350.04
  C 2013.50 360.22 1997.28 364.37 1979.75 365.12
  C 1949.41 366.41 1922.62 353.91 1908.95 325.81
  C 1900.66 308.78 1898.43 287.20 1901.45 268.99
  C 1906.30 239.73 1926.42 217.16 1955.47 210.72
  C 1972.94 206.84 1992.94 208.59 2008.72 217.56
  C 2032.26 230.94 2041.26 257.98 2039.18 283.68
  Q 2038.89 287.24 2037.36 289.37
  Q 2035.93 291.35 2033.00 291.37
  Q 1994.86 291.65 1956.71 291.62
  Z
  M 1938.11 269.63
  L 2006.10 269.63
  A 0.42 0.42 0.0 0 0 2006.52 269.22
  Q 2006.65 263.51 2004.85 257.36
  Q 1999.03 237.48 1977.95 235.19
  Q 1971.53 234.50 1963.97 236.12
  C 1947.77 239.60 1940.09 253.63 1937.62 269.06
  A 0.50 0.49 4.5 0 0 1938.11 269.63
  Z"
/>
<path fill="#ffffff" d="
  M 970.46 344.52
  Q 966.78 348.52 960.68 353.18
  C 939.22 369.54 903.07 371.16 884.70 348.13
  C 875.00 335.96 872.18 321.04 872.37 305.86
  Q 872.37 305.49 872.38 211.72
  A 0.46 0.46 0.0 0 1 872.84 211.26
  L 908.68 211.26
  A 0.31 0.31 0.0 0 1 908.99 211.56
  Q 909.01 212.37 908.99 307.25
  C 908.99 322.41 914.59 335.29 931.54 336.65
  C 946.16 337.83 956.80 331.80 968.03 321.56
  A 1.45 1.43 -21.5 0 0 968.50 320.50
  L 968.50 211.84
  A 0.59 0.58 0.0 0 1 969.09 211.26
  L 1004.53 211.26
  A 0.60 0.59 0.0 0 1 1005.13 211.85
  L 1005.13 362.33
  A 0.61 0.61 0.0 0 1 1004.52 362.94
  Q 983.99 363.15 980.99 362.81
  Q 975.19 362.17 973.45 356.08
  Q 972.35 352.24 971.01 344.68
  A 0.32 0.32 0.0 0 0 970.46 344.52
  Z"
/>
<rect fill="#ffffff" x="1034.88" y="211.25" width="36.74" height="151.74" rx="0.38"/>
<path fill="#009fd1" d="
  M 1947.71 291.63
  L 1947.00 291.63
  L 1947.71 291.63
  Z"
/>
<path fill="#009fd1" d="
  M 1948.71 291.63
  L 1948.00 291.63
  L 1948.71 291.63
  Z"
/>
<path fill="#009fd1" d="
  M 1949.71 291.63
  L 1949.00 291.63
  L 1949.71 291.63
  Z"
/>
<path fill="#009fd1" d="
  M 1950.71 291.63
  L 1950.00 291.63
  L 1950.71 291.63
  Z"
/>
<path fill="#009fd1" d="
  M 1951.71 291.63
  L 1951.00 291.63
  L 1951.71 291.63
  Z"
/>
<path fill="#009fd1" d="
  M 1953.71 291.63
  L 1953.00 291.63
  L 1953.71 291.63
  Z"
/>
<path fill="#009fd1" d="
  M 1955.71 291.63
  L 1955.00 291.63
  L 1955.71 291.63
  Z"
/>
<path fill="#009fd1" d="
  M 1956.71 291.62
  L 1956.00 291.63
  L 1956.71 291.62
  Z"
/>
<path fill="#009fd1" d="
  M 1882.62 342.21
  L 1882.61 341.53
  L 1882.62 342.21
  Z"
/>
</svg>
